<?xml version="1.0" encoding="utf-8"?>
<!-- Generator: Adobe Illustrator 25.4.0, SVG Export Plug-In . SVG Version: 6.00 Build 0)  -->
<svg version="1.1" id="Layer_1" xmlns="http://www.w3.org/2000/svg" xmlns:xlink="http://www.w3.org/1999/xlink" x="0px" y="0px"
	 viewBox="0 0 31.2 30.3" style="enable-background:new 0 0 31.2 30.3;" xml:space="preserve" width="24" height="24">
<style type="text/css">
	.st0{fill:#FCFEFB;}
</style>
<path id="noun_send_984575" class="st0" d="M16.2,16.1L3.4,17.4L0.1,28.1c-0.3,0.9,0.2,1.8,1.1,2.1c0,0,0,0,0,0
	c0.4,0.1,0.8,0.1,1.2-0.1l27.9-13.5c0.8-0.4,1.1-1.3,0.7-2.1c0,0,0,0,0,0c-0.1-0.3-0.4-0.6-0.7-0.7L2.4,0.2c-0.8-0.4-1.8,0-2.2,0.8
	C0,1.3-0.1,1.8,0.1,2.2l3.4,10.7l12.7,1.2c0.5,0,0.9,0.5,0.9,1c0,0,0,0,0,0.1C17,15.7,16.6,16.1,16.2,16.1L16.2,16.1z"/>
</svg>
